<?xml version="1.0" encoding="UTF-8" standalone="no"?>
<!-- Generator: Adobe Illustrator 23.0.2, SVG Export Plug-In . SVG Version: 6.00 Build 0)  -->

<svg
   xmlns:dc="http://purl.org/dc/elements/1.1/"
   xmlns:cc="http://creativecommons.org/ns#"
   xmlns:rdf="http://www.w3.org/1999/02/22-rdf-syntax-ns#"
   xmlns:svg="http://www.w3.org/2000/svg"
   xmlns="http://www.w3.org/2000/svg"
   xmlns:sodipodi="http://sodipodi.sourceforge.net/DTD/sodipodi-0.dtd"
   xmlns:inkscape="http://www.inkscape.org/namespaces/inkscape"
   version="1.1"
   id="Layer_1"
   x="0px"
   y="0px"
   viewBox="0 0 98.4 118.3"
   style="enable-background:new 0 0 98.4 118.3;"
   xml:space="preserve"
   sodipodi:docname="svelte-logo-outline.svg"
   inkscape:export-filename="/home/zeetec/javascript/belajar_svelte/kpb/src/asset/images/svelte-logo-outline.png"
   inkscape:export-xdpi="96"
   inkscape:export-ydpi="96"
   inkscape:version="0.92.4 (5da689c313, 2019-01-14)"><metadata
   id="metadata13"><rdf:RDF><cc:Work
       rdf:about=""><dc:format>image/svg+xml</dc:format><dc:type
         rdf:resource="http://purl.org/dc/dcmitype/StillImage" /></cc:Work></rdf:RDF></metadata><defs
   id="defs11" /><sodipodi:namedview
   pagecolor="#ffffff"
   bordercolor="#666666"
   borderopacity="1"
   objecttolerance="10"
   gridtolerance="10"
   guidetolerance="10"
   inkscape:pageopacity="0"
   inkscape:pageshadow="2"
   inkscape:window-width="1366"
   inkscape:window-height="715"
   id="namedview9"
   showgrid="false"
   inkscape:zoom="0.49873202"
   inkscape:cx="209.1011"
   inkscape:cy="415.31572"
   inkscape:window-x="0"
   inkscape:window-y="27"
   inkscape:window-maximized="1"
   inkscape:current-layer="Layer_1" />
<style
   type="text/css"
   id="style2">
	.st0{fill:none;stroke:#FF3E00;stroke-width:0.25;}
</style>
<path
   class="st0"
   d="M 600.00857,-550.80981 C 528.88796,-652.59704 387.95181,-683.26374 285.51206,-618.01552 l -179.43267,114.18443 c -48.936176,30.66668 -82.86526,80.90783 -92.652496,137.67379 -8.4822713,47.63123 -1.304965,96.56742 21.531919,138.97877 -15.659578,23.48936 -26.099296,49.58865 -30.6666724,76.99292 C -6.1475779,-92.114691 7.5545526,-32.086309 41.483635,15.544904 113.2567,117.98461 254.19289,147.99882 355.98016,83.403043 L 535.41281,-30.78134 c 48.93619,-30.666677 82.86521,-80.90781 92.65248,-137.67379 8.48226,-47.6312 1.30495,-96.5674 -21.53191,-138.97874 15.65958,-23.48936 26.0993,-49.58865 30.66664,-76.99292 11.0922,-58.72342 -2.60992,-118.09932 -37.19145,-166.38302"
   id="path4"
   inkscape:connector-curvature="0"
   style="fill:none;stroke:#ff3e00;stroke-width:1.63120592"
   inkscape:export-xdpi="96"
   inkscape:export-ydpi="96" />
<path
   class="st0"
   d="M 267.89502,25.332142 C 209.8241,40.339236 149.14324,17.502349 115.21414,-31.433828 94.334708,-60.14305 86.504922,-96.02958 92.377263,-131.26363 c 1.304965,-5.87234 2.609931,-11.0922 3.914891,-16.96455 l 3.262413,-10.43971 9.134753,6.52482 c 21.53192,15.65958 45.02129,27.40426 70.4681,35.23405 l 6.52482,1.95745 -0.65247,6.52482 c -0.6525,9.134756 1.95744,18.921988 7.1773,26.75178 10.43972,15.007098 28.70923,22.184401 46.32626,17.617027 3.91488,-1.304965 7.82978,-2.609929 11.0922,-4.567377 l 178.78013,-114.18441 c 9.13476,-5.87235 15.00715,-14.35462 16.96455,-24.79435 1.95745,-10.43971 -0.65248,-21.53191 -6.5248,-30.01419 -10.43975,-15.00709 -28.70923,-21.5319 -46.32623,-16.96454 -3.91492,1.30498 -7.8298,2.60994 -11.09225,4.56738 l -68.51061,43.71633 c -11.0922,7.1773 -23.48937,12.39717 -36.53901,15.65957 -58.07095,15.00709 -118.75182,-7.82978 -152.68089,-56.76595 -20.22695,-28.70924 -28.709226,-64.59578 -22.1844,-99.82983 5.87233,-33.92907 26.75178,-64.59575 56.11347,-82.86525 l 178.78019,-114.1844 c 11.09219,-7.17732 23.48936,-12.39717 36.53899,-16.31209 58.07094,-15.0071 118.75184,7.82979 152.68091,56.76596 20.87941,28.70924 28.70923,64.59577 22.83686,99.82983 -1.30495,5.87233 -2.60989,11.0922 -4.56738,16.96453 l -2.6099,10.43972 -9.13481,-6.52481 c -21.53185,-15.65959 -45.02122,-27.40428 -70.46806,-35.23406 l -6.52481,-1.95743 0.65244,-6.52485 c 0.65249,-9.13475 -1.95745,-18.92199 -7.17725,-26.75176 -10.43975,-15.00711 -28.70925,-21.53193 -46.32627,-16.96454 -3.91489,1.30495 -7.82978,2.60991 -11.09222,4.56737 l -178.78015,114.18441 c -9.13476,5.21986 -15.00711,14.35461 -16.96455,24.79434 -1.95745,10.43971 0.65249,21.53191 6.52483,30.01418 10.43972,15.00709 28.70923,21.53193 46.32623,16.96454 3.91491,-1.30495 7.8298,-2.60991 11.0922,-4.56737 l 68.51067,-43.71633 c 11.09219,-7.1773 23.48936,-12.39716 36.539,-16.31204 58.07095,-15.0071 118.75179,7.82978 152.6809,56.76596 20.87942,28.70923 28.70924,64.59575 22.83685,99.8298 -5.87234,33.92909 -26.75176,64.59576 -56.11345,82.86526 L 305.08653,9.0200822 C 293.34183,16.19739 280.94466,22.069728 267.89502,25.332142"
   id="path6"
   inkscape:connector-curvature="0"
   style="fill:none;stroke:#ff3e00;stroke-width:1.63120592"
   inkscape:export-xdpi="96"
   inkscape:export-ydpi="96" />
</svg>